# xmcd
#
# Track frame offsets:
#	150
#	15345
#	26363
#	36880
#	47896
#
# Disc length: 780
#
# Revision: 1
# Processed by: cddbd v1.5.1PL0 Copyright (c) Steve Scherf et al.
# Submitted via: dBpowerAMP V4.0
# Normalized: r0:TRMNUM
#
DISCID=30030a05
DTITLE=The Stone Beats - Aint Blues, Its Parrafin
DYEAR=1900
DGENRE=
TTITLE0=Substitue
TTITLE1=Birthday
TTITLE2=Get Yourself Together
TTITLE3=Midnight Hour
TTITLE4=A Hard Days Night
EXTD=
EXTT0=
EXTT1=
EXTT2=
EXTT3=
EXTT4=
PLAYORDER=
